<svg width="23" height="22" viewBox="0 0 23 22" fill="none" xmlns="http://www.w3.org/2000/svg">
<path d="M3.84946 16.3542C4.1519 16.6443 4.30334 17.0483 4.26252 17.4561C4.17104 18.3701 3.96034 19.3213 3.68973 20.2049C5.69489 19.7616 6.91951 19.2474 7.47617 18.9776C7.79214 18.8244 8.15611 18.7883 8.49825 18.876C9.44389 19.1185 10.4517 19.25 11.5 19.25C17.2437 19.25 21.5625 15.3896 21.5625 11C21.5625 6.61037 17.2437 2.75 11.5 2.75C5.75633 2.75 1.4375 6.61037 1.4375 11C1.4375 13.0186 2.32487 14.8918 3.84946 16.3542ZM3.14079 21.7235C3.1311 21.7254 3.12141 21.7272 3.1117 21.729C2.9797 21.7539 2.84513 21.7784 2.70799 21.8024C2.51562 21.8361 2.31817 21.8689 2.1156 21.9007C1.82951 21.9455 1.61053 21.6592 1.72353 21.4038C1.79736 21.237 1.87015 21.0621 1.94106 20.8808C1.9861 20.7657 2.03039 20.6479 2.07372 20.5279C2.07559 20.5228 2.07745 20.5176 2.07931 20.5124C2.43545 19.5228 2.72545 18.3853 2.83157 17.3251C1.06815 15.6336 0 13.4212 0 11C0 5.68426 5.14873 1.375 11.5 1.375C17.8513 1.375 23 5.68426 23 11C23 16.3157 17.8513 20.625 11.5 20.625C10.3259 20.625 9.19292 20.4777 8.12595 20.2041C7.37921 20.566 5.77061 21.2249 3.14079 21.7235Z" fill="#1BAEA6"/>
<path d="M5.75 7.5625C5.75 7.1828 6.0718 6.875 6.46875 6.875H16.5312C16.9282 6.875 17.25 7.1828 17.25 7.5625C17.25 7.9422 16.9282 8.25 16.5312 8.25H6.46875C6.0718 8.25 5.75 7.9422 5.75 7.5625ZM5.75 11C5.75 10.6203 6.0718 10.3125 6.46875 10.3125H16.5312C16.9282 10.3125 17.25 10.6203 17.25 11C17.25 11.3797 16.9282 11.6875 16.5312 11.6875H6.46875C6.0718 11.6875 5.75 11.3797 5.75 11ZM5.75 14.4375C5.75 14.0578 6.0718 13.75 6.46875 13.75H12.2188C12.6157 13.75 12.9375 14.0578 12.9375 14.4375C12.9375 14.8172 12.6157 15.125 12.2188 15.125H6.46875C6.0718 15.125 5.75 14.8172 5.75 14.4375Z" fill="#1BAEA6"/>
</svg>
