<svg width="24" height="23" viewBox="0 0 24 23" fill="none" xmlns="http://www.w3.org/2000/svg">
<path fill-rule="evenodd" clip-rule="evenodd" d="M2.74247 12.793L13.3491 2.62835C15.6922 0.382835 19.4912 0.382835 21.8344 2.62835C24.1775 4.87386 24.1775 8.51456 21.8344 10.7601L11.2277 20.9247C8.8846 23.1703 5.08561 23.1703 2.74247 20.9247C0.399321 18.6792 0.399321 15.0385 2.74247 12.793ZM16.4342 13.9023L20.7737 9.74361C22.531 8.05948 22.531 5.32895 20.7737 3.64482C19.0163 1.96068 16.1671 1.96068 14.4097 3.64482L10.0702 7.80353L16.4342 13.9023Z" fill="#1BAEA6" fill-opacity="0.8"/>
<rect x="3.38462" y="1.76929" width="0.923077" height="2.65385" rx="0.461538" fill="#1BAEA6"/>
<rect x="1.84615" y="4.4231" width="0.884615" height="2.30769" rx="0.442308" transform="rotate(-90 1.84615 4.4231)" fill="#1BAEA6"/>
<path d="M6.88462 3.53846C6.88462 5.19672 5.47564 6.57692 3.69231 6.57692C1.90898 6.57692 0.5 5.19672 0.5 3.53846C0.5 1.88021 1.90898 0.5 3.69231 0.5C5.47564 0.5 6.88462 1.88021 6.88462 3.53846Z" stroke="#1BAEA6"/>
</svg>
