<svg width="20" height="20" viewBox="0 0 20 20" fill="none" xmlns="http://www.w3.org/2000/svg">
<path fill-rule="evenodd" clip-rule="evenodd" d="M13.7761 6.705C15.2405 5.24053 15.2405 2.86616 13.7761 1.40169C12.3116 -0.062772 9.93723 -0.0627715 8.47276 1.40169L1.40169 8.47276C-0.0627718 9.93723 -0.0627718 12.3116 1.40169 13.7761C2.6831 15.0575 4.66115 15.2176 6.11672 14.2566C6.32466 14.1193 6.52194 13.9591 6.705 13.7761L13.7761 6.705ZM5.75832 5.88391L9.35665 2.28558C10.333 1.30927 11.9159 1.30927 12.8922 2.28558C13.8685 3.26189 13.8685 4.8448 12.8922 5.82111L9.29385 9.41944L5.75832 5.88391Z" fill="#1BAEA6" fill-opacity="0.8"/>
<path fill-rule="evenodd" clip-rule="evenodd" d="M15 10C17.7615 10 20 12.2386 20 15C20 17.7615 17.7615 20 15 20C12.2386 20 10 17.7615 10 15C10 12.2386 12.2386 10 15 10ZM14.375 11.3019C12.6015 11.5994 11.25 13.1419 11.25 15C11.25 16.8582 12.6015 18.4006 14.375 18.6982V11.3019ZM15.625 18.6982C17.3986 18.4006 18.75 16.8582 18.75 15C18.75 13.1419 17.3986 11.5994 15.625 11.3019V18.6982Z" fill="#1BAEA6" fill-opacity="0.8"/>
</svg>
