<svg width="21" height="21" viewBox="0 0 21 21" fill="none" xmlns="http://www.w3.org/2000/svg">
<path d="M0 5.25C0 3.80025 1.17525 2.625 2.625 2.625H18.375C19.8247 2.625 21 3.80025 21 5.25V15.75C21 17.1997 19.8247 18.375 18.375 18.375H2.625C1.17525 18.375 0 17.1997 0 15.75V5.25ZM3.28125 6.5625C2.91881 6.5625 2.625 6.85631 2.625 7.21875V8.53125C2.625 8.89369 2.91881 9.1875 3.28125 9.1875H5.90625C6.26869 9.1875 6.5625 8.89369 6.5625 8.53125V7.21875C6.5625 6.85631 6.26869 6.5625 5.90625 6.5625H3.28125ZM3.28125 10.5C2.91881 10.5 2.625 10.7938 2.625 11.1562C2.625 11.5187 2.91881 11.8125 3.28125 11.8125H9.84375C10.2062 11.8125 10.5 11.5187 10.5 11.1562C10.5 10.7938 10.2062 10.5 9.84375 10.5H3.28125ZM3.28125 13.125C2.91881 13.125 2.625 13.4188 2.625 13.7812C2.625 14.1437 2.91881 14.4375 3.28125 14.4375H4.59375C4.95619 14.4375 5.25 14.1437 5.25 13.7812C5.25 13.4188 4.95619 13.125 4.59375 13.125H3.28125ZM7.21875 13.125C6.85631 13.125 6.5625 13.4188 6.5625 13.7812C6.5625 14.1437 6.85631 14.4375 7.21875 14.4375H8.53125C8.89369 14.4375 9.1875 14.1437 9.1875 13.7812C9.1875 13.4188 8.89369 13.125 8.53125 13.125H7.21875ZM11.1562 13.125C10.7938 13.125 10.5 13.4188 10.5 13.7812C10.5 14.1437 10.7938 14.4375 11.1562 14.4375H12.4688C12.8312 14.4375 13.125 14.1437 13.125 13.7812C13.125 13.4188 12.8312 13.125 12.4688 13.125H11.1562ZM15.0938 13.125C14.7313 13.125 14.4375 13.4188 14.4375 13.7812C14.4375 14.1437 14.7313 14.4375 15.0938 14.4375H16.4062C16.7687 14.4375 17.0625 14.1437 17.0625 13.7812C17.0625 13.4188 16.7687 13.125 16.4062 13.125H15.0938Z" fill="#1BAEA6" fill-opacity="0.8"/>
</svg>
