<svg width="21" height="21" viewBox="0 0 21 21" fill="none" xmlns="http://www.w3.org/2000/svg">
<path d="M0 10.5C0 4.70101 4.70101 0 10.5 0C16.299 0 21 4.70101 21 10.5C21 16.299 16.299 21 10.5 21C4.70101 21 0 16.299 0 10.5ZM9.84375 1.41298C8.96512 1.68168 8.09106 2.4901 7.36673 3.84823C7.13996 4.27343 6.93393 4.74289 6.7528 5.24999H9.84375V1.41298ZM5.36752 5.24999C5.6017 4.51682 5.88427 3.83878 6.20864 3.23059C6.44321 2.79077 6.70507 2.37879 6.99203 2.00596C5.35656 2.68214 3.95888 3.81691 2.95927 5.24999H5.36752ZM4.60484 9.84374C4.64388 8.69291 4.78498 7.58848 5.01376 6.56249H2.19664C1.71849 7.56901 1.41797 8.67627 1.33557 9.84374H4.60484ZM6.3615 6.56249C6.11633 7.56652 5.96074 8.67271 5.91814 9.84374H9.84375V6.56249H6.3615ZM11.1562 6.56249V9.84374H15.0819C15.0393 8.67271 14.8837 7.56652 14.6385 6.56249H11.1562ZM5.91814 11.1562C5.96074 12.3273 6.11633 13.4335 6.36151 14.4375H9.84375V11.1562H5.91814ZM11.1562 11.1562V14.4375H14.6385C14.8837 13.4335 15.0393 12.3273 15.0819 11.1562H11.1562ZM6.7528 15.75C6.93393 16.2571 7.13996 16.7266 7.36673 17.1518C8.09106 18.5099 8.96512 19.3183 9.84375 19.587V15.75H6.7528ZM6.99203 18.994C6.70507 18.6212 6.44321 18.2092 6.20864 17.7694C5.88427 17.1612 5.6017 16.4832 5.36752 15.75H2.95927C3.95888 17.1831 5.35656 18.3178 6.99203 18.994ZM5.01376 14.4375C4.78498 13.4115 4.64388 12.3071 4.60484 11.1562H1.33557C1.41797 12.3237 1.71849 13.431 2.19664 14.4375H5.01376ZM14.008 18.994C15.6434 18.3178 17.0411 17.1831 18.0407 15.75H15.6325C15.3983 16.4832 15.1157 17.1612 14.7913 17.7694C14.5568 18.2092 14.2949 18.6212 14.008 18.994ZM11.1562 15.75V19.587C12.0349 19.3183 12.9089 18.5099 13.6333 17.1518C13.86 16.7266 14.0661 16.2571 14.2472 15.75H11.1562ZM15.9862 14.4375H18.8034C19.2815 13.431 19.582 12.3237 19.6644 11.1562H16.3951C16.3561 12.3071 16.215 13.4115 15.9862 14.4375ZM19.6644 9.84374C19.582 8.67627 19.2815 7.56901 18.8034 6.56249H15.9862C16.215 7.58848 16.3561 8.69291 16.3951 9.84374H19.6644ZM14.7913 3.23059C15.1157 3.83878 15.3983 4.51682 15.6325 5.24999H18.0407C17.0411 3.81691 15.6434 2.68214 14.008 2.00596C14.2949 2.37879 14.5568 2.79077 14.7913 3.23059ZM14.2472 5.24999C14.0661 4.74289 13.86 4.27343 13.6333 3.84823C12.9089 2.4901 12.0349 1.68168 11.1562 1.41298V5.24999H14.2472Z" fill="#1BAEA6"/>
</svg>
