<svg width="23" height="22" viewBox="0 0 23 22" fill="none" xmlns="http://www.w3.org/2000/svg">
<path d="M21.5625 19.25C21.5625 19.25 23 19.25 23 17.875C23 16.5 21.5625 12.375 15.8125 12.375C10.0625 12.375 8.625 16.5 8.625 17.875C8.625 19.25 10.0625 19.25 10.0625 19.25H21.5625ZM10.0946 17.875C10.0896 17.8744 10.0827 17.8736 10.0742 17.8722C10.0702 17.8716 10.0663 17.8709 10.0625 17.8702C10.0646 17.5072 10.3024 16.4545 11.1539 15.5042C11.9504 14.6154 13.3439 13.75 15.8125 13.75C18.2811 13.75 19.6746 14.6154 20.4711 15.5042C21.3226 16.4545 21.5604 17.5072 21.5625 17.8702C21.5587 17.8709 21.5548 17.8716 21.5508 17.8722C21.5423 17.8736 21.5354 17.8744 21.5304 17.875H10.0946Z" fill="#1BAEA6"/>
<path d="M15.8125 9.625C17.4003 9.625 18.6875 8.39378 18.6875 6.875C18.6875 5.35622 17.4003 4.125 15.8125 4.125C14.2247 4.125 12.9375 5.35622 12.9375 6.875C12.9375 8.39378 14.2247 9.625 15.8125 9.625ZM20.125 6.875C20.125 9.15317 18.1942 11 15.8125 11C13.4308 11 11.5 9.15317 11.5 6.875C11.5 4.59683 13.4308 2.75 15.8125 2.75C18.1942 2.75 20.125 4.59683 20.125 6.875Z" fill="#1BAEA6"/>
<path d="M9.9704 12.76C9.44169 12.5982 8.85433 12.4806 8.20278 12.4205C7.8803 12.3907 7.5421 12.375 7.1875 12.375C1.4375 12.375 0 16.5 0 17.875C0 18.7917 0.479167 19.25 1.4375 19.25H7.49852C7.29612 18.8594 7.1875 18.3963 7.1875 17.875C7.1875 16.4859 7.72979 15.0673 8.75411 13.8823C9.10408 13.4774 9.51031 13.0998 9.9704 12.76ZM7.07256 13.7506C6.21367 15.0062 5.75 16.4377 5.75 17.875H1.4375C1.4375 17.5165 1.6736 16.4587 2.52893 15.5042C3.31298 14.6293 4.67546 13.7771 7.07256 13.7506Z" fill="#1BAEA6"/>
<path d="M2.15625 7.5625C2.15625 5.28433 4.08702 3.4375 6.46875 3.4375C8.85048 3.4375 10.7812 5.28433 10.7812 7.5625C10.7812 9.84067 8.85048 11.6875 6.46875 11.6875C4.08702 11.6875 2.15625 9.84067 2.15625 7.5625ZM6.46875 4.8125C4.88093 4.8125 3.59375 6.04372 3.59375 7.5625C3.59375 9.08128 4.88093 10.3125 6.46875 10.3125C8.05657 10.3125 9.34375 9.08128 9.34375 7.5625C9.34375 6.04372 8.05657 4.8125 6.46875 4.8125Z" fill="#1BAEA6"/>
</svg>
