<svg width="20" height="20" viewBox="0 0 20 20" fill="none" xmlns="http://www.w3.org/2000/svg">
<path fill-rule="evenodd" clip-rule="evenodd" d="M6.875 7.5C6.52982 7.5 6.25 7.77982 6.25 8.125V13.125C6.25 13.4702 6.52982 13.75 6.875 13.75C7.22018 13.75 7.5 13.4702 7.5 13.125V11.25H7.86612L10.3661 13.75L8.93306 15.1831C8.68898 15.4271 8.68898 15.8229 8.93306 16.0669C9.17714 16.311 9.57287 16.311 9.81694 16.0669L11.25 14.6339L12.6831 16.0669C12.9271 16.311 13.3229 16.311 13.5669 16.0669C13.811 15.8229 13.811 15.4271 13.5669 15.1831L12.1339 13.75L13.5669 12.3169C13.811 12.0729 13.811 11.6771 13.5669 11.4331C13.3229 11.189 12.9271 11.189 12.6831 11.4331L11.25 12.8661L9.61825 11.2344C10.5389 11.1151 11.25 10.3281 11.25 9.375C11.25 8.33947 10.4105 7.5 9.375 7.5H6.875ZM7.5 8.75V10H9.375C9.72018 10 10 9.72018 10 9.375C10 9.02982 9.72018 8.75 9.375 8.75H7.5Z" fill="#1BAEA6"/>
<path fill-rule="evenodd" clip-rule="evenodd" d="M2.5 1.25C2.5 0.559644 3.05964 0 3.75 0H16.25C16.9404 0 17.5 0.559644 17.5 1.25V3.75C17.5 4.44036 16.9404 5 16.25 5V18.125C16.25 19.1605 15.4105 20 14.375 20H5.625C4.58947 20 3.75 19.1605 3.75 18.125L3.75 5C3.05964 5 2.5 4.44036 2.5 3.75V1.25ZM5 5H15V18.125C15 18.4702 14.7202 18.75 14.375 18.75H5.625C5.27982 18.75 5 18.4702 5 18.125V5ZM3.75 3.75V1.25H16.25V3.75H3.75Z" fill="#1BAEA6"/>
</svg>
